<svg width="16" height="16" viewBox="0 0 16 16" fill="none" xmlns="http://www.w3.org/2000/svg">
<path d="M15.665 4.60258C15.5744 4.27944 15.3979 3.98689 15.1544 3.75602C14.9039 3.51806 14.597 3.34783 14.2625 3.26142C13.0107 2.93147 7.99534 2.93147 7.99534 2.93147C5.9045 2.90768 3.81418 3.01231 1.73618 3.24476C1.40168 3.33755 1.09531 3.51158 0.844298 3.75136C0.597664 3.98866 0.419022 4.28129 0.325701 4.60191C0.101526 5.80958 -0.00739287 7.03581 0.0004114 8.26408C-0.00758752 9.49125 0.101065 10.7171 0.325701 11.9263C0.417022 12.2455 0.594998 12.5368 0.842298 12.7721C1.0896 13.0074 1.39756 13.1774 1.73618 13.2674C3.00467 13.5967 7.99534 13.5967 7.99534 13.5967C10.0888 13.6205 12.1818 13.5159 14.2625 13.2834C14.597 13.197 14.9039 13.0268 15.1544 12.7888C15.401 12.5535 15.5763 12.2609 15.6643 11.9423C15.8943 10.7351 16.0062 9.50831 15.9983 8.27941C16.0156 7.04532 15.9039 5.81279 15.665 4.60191V4.60258ZM6.40088 10.5464V5.98239L10.5737 8.26475L6.40088 10.5464Z" fill="black"/>
</svg>
