<svg width="30" height="48" viewBox="0 0 30 48" fill="none" xmlns="http://www.w3.org/2000/svg">
<line x1="3" y1="2" x2="30" y2="2" stroke="black" stroke-width="4"/>
<path d="M16.125 32.0391H7.47656L7.42969 28.4062H15.2812C16.5781 28.4062 17.7109 28.1875 18.6797 27.75C19.6484 27.3125 20.3984 26.6875 20.9297 25.875C21.4766 25.0469 21.75 24.0625 21.75 22.9219C21.75 21.6719 21.5078 20.6562 21.0234 19.875C20.5547 19.0781 19.8281 18.5 18.8438 18.1406C17.875 17.7656 16.6406 17.5781 15.1406 17.5781H8.48438V48H3.96094V13.875H15.1406C16.8906 13.875 18.4531 14.0547 19.8281 14.4141C21.2031 14.7578 22.3672 15.3047 23.3203 16.0547C24.2891 16.7891 25.0234 17.7266 25.5234 18.8672C26.0234 20.0078 26.2734 21.375 26.2734 22.9688C26.2734 24.375 25.9141 25.6484 25.1953 26.7891C24.4766 27.9141 23.4766 28.8359 22.1953 29.5547C20.9297 30.2734 19.4453 30.7344 17.7422 30.9375L16.125 32.0391ZM15.9141 48H5.69531L8.25 44.3203H15.9141C17.3516 44.3203 18.5703 44.0703 19.5703 43.5703C20.5859 43.0703 21.3594 42.3672 21.8906 41.4609C22.4219 40.5391 22.6875 39.4531 22.6875 38.2031C22.6875 36.9375 22.4609 35.8438 22.0078 34.9219C21.5547 34 20.8438 33.2891 19.875 32.7891C18.9062 32.2891 17.6562 32.0391 16.125 32.0391H9.67969L9.72656 28.4062H18.5391L19.5 29.7188C21.1406 29.8594 22.5312 30.3281 23.6719 31.125C24.8125 31.9062 25.6797 32.9062 26.2734 34.125C26.8828 35.3438 27.1875 36.6875 27.1875 38.1562C27.1875 40.2812 26.7188 42.0781 25.7812 43.5469C24.8594 45 23.5547 46.1094 21.8672 46.875C20.1797 47.625 18.1953 48 15.9141 48Z" fill="black"/>
</svg>
