<svg width="23" height="35" viewBox="0 0 23 35" fill="none" xmlns="http://www.w3.org/2000/svg">
<line x1="3" y1="1" x2="20" y2="1" stroke="white" stroke-width="2"/>
<path d="M12.0938 23.0293H5.60742L5.57227 20.3047H11.4609C12.4336 20.3047 13.2832 20.1406 14.0098 19.8125C14.7363 19.4844 15.2988 19.0156 15.6973 18.4062C16.1074 17.7852 16.3125 17.0469 16.3125 16.1914C16.3125 15.2539 16.1309 14.4922 15.7676 13.9062C15.416 13.3086 14.8711 12.875 14.1328 12.6055C13.4062 12.3242 12.4805 12.1836 11.3555 12.1836H6.36328V35H2.9707V9.40625H11.3555C12.668 9.40625 13.8398 9.54102 14.8711 9.81055C15.9023 10.0684 16.7754 10.4785 17.4902 11.041C18.2168 11.5918 18.7676 12.2949 19.1426 13.1504C19.5176 14.0059 19.7051 15.0312 19.7051 16.2266C19.7051 17.2812 19.4355 18.2363 18.8965 19.0918C18.3574 19.9355 17.6074 20.627 16.6465 21.166C15.6973 21.7051 14.584 22.0508 13.3066 22.2031L12.0938 23.0293ZM11.9355 35H4.27148L6.1875 32.2402H11.9355C13.0137 32.2402 13.9277 32.0527 14.6777 31.6777C15.4395 31.3027 16.0195 30.7754 16.418 30.0957C16.8164 29.4043 17.0156 28.5898 17.0156 27.6523C17.0156 26.7031 16.8457 25.8828 16.5059 25.1914C16.166 24.5 15.6328 23.9668 14.9062 23.5918C14.1797 23.2168 13.2422 23.0293 12.0938 23.0293H7.25977L7.29492 20.3047H13.9043L14.625 21.2891C15.8555 21.3945 16.8984 21.7461 17.7539 22.3438C18.6094 22.9297 19.2598 23.6797 19.7051 24.5938C20.1621 25.5078 20.3906 26.5156 20.3906 27.6172C20.3906 29.2109 20.0391 30.5586 19.3359 31.6602C18.6445 32.75 17.666 33.582 16.4004 34.1562C15.1348 34.7188 13.6465 35 11.9355 35Z" fill="white"/>
</svg>
